# Blender 3.4.1
# www.blender.org
mtllib cube.mtl
o Cube
v -10.000000 -10.000000 10.000000
v -10.000000 10.000000 10.000000
v -10.000000 -10.000000 -10.000000
v -10.000000 10.000000 -10.000000
v 10.000000 -10.000000 10.000000
v 10.000000 10.000000 10.000000
v 10.000000 -10.000000 -10.000000
v 10.000000 10.000000 -10.000000
vn -1.0000 -0.0000 -0.0000
vn -0.0000 -0.0000 -1.0000
vn 1.0000 -0.0000 -0.0000
vn -0.0000 -0.0000 1.0000
vn -0.0000 -1.0000 -0.0000
vn -0.0000 1.0000 -0.0000
vt 0.004137 0.000000
vt 0.003000 0.998797
vt 0.003377 1.000709
vt 0.997093 0.000000
vt 1.002236 0.996748
vt 0.996951 0.998780
vt 0.004137 0.998031
vt 0.004669 0.003552
vt 0.003377 0.000148
vt 0.997093 0.998031
vt 0.998289 0.003552
vt 0.998374 0.003252
vt 0.001394 0.998834
vt 0.001016 0.000407
vt 1.001314 1.000709
vt 1.001070 0.998834
vt 1.000000 0.003252
vt 0.000610 0.998780
vt 0.004669 0.997294
vt 0.001394 0.001381
vt 1.001314 0.000148
vt 0.998289 0.997294
vt 1.001070 0.001381
vt 0.000610 -0.000813
s 0
usemtl Checkerboard
f 1/1/1 2/4/1 4/10/1 3/7/1
f 3/8/2 4/11/2 8/22/2 7/19/2
f 7/20/3 8/23/3 6/16/3 5/13/3
f 5/14/4 6/17/4 2/5/4 1/2/4
f 3/9/5 7/21/5 5/15/5 1/3/5
f 8/24/6 4/12/6 2/6/6 6/18/6
